<?xml version="1.0" encoding="UTF-8"?>
<svg xmlns="http://www.w3.org/2000/svg" viewBox="0 0 398.98 114.58">
  <defs>
    <style>.a{fill:#444;}.b{fill:#db3d3c;}</style>
  </defs>
  <title>Romel Indemne</title>
  <path class="a" d="M87.16,37.7v4.11A24,24,0,0,1,93.59,37a15.88,15.88,0,0,1,6.63-1.31,14,14,0,0,1,6.32,1.56A22.23,22.23,0,0,1,112.65,42a27.89,27.89,0,0,1,7.63-4.65,21.37,21.37,0,0,1,7.92-1.53q8.09,0,13.13,4.33A18.63,18.63,0,0,1,148,55V87.6q4.55,0,6.75,2.06a6.89,6.89,0,0,1,2.2,5.25,6.8,6.8,0,0,1-2.2,5.22q-2.2,2-7.46,2H133.45V56.22c0-2.22-.4-3.76-1.21-4.61a4.85,4.85,0,0,0-3.69-1.28,8.32,8.32,0,0,0-4.47,1.28,31.26,31.26,0,0,0-6.39,6.67V87.6c3,0,5.27.69,6.74,2.06a6.86,6.86,0,0,1,2.2,5.25,6.76,6.76,0,0,1-2.2,5.22q-2.21,2-7.45,2H103.14V56.22c0-2.17-.42-3.7-1.25-4.57a4.88,4.88,0,0,0-3.72-1.32,9.16,9.16,0,0,0-5,1.6q-2.49,1.59-6,6.35V87.6q4.55,0,6.78,2.06a6.82,6.82,0,0,1,2.24,5.25,6.73,6.73,0,0,1-2.24,5.22c-1.49,1.35-4,2-7.49,2H73.32q-5.25,0-7.49-2a7.32,7.32,0,0,1,0-10.5q2.2-2,6.82-2V52.25q-4.62,0-6.82-2.06a6.89,6.89,0,0,1-2.2-5.25,6.73,6.73,0,0,1,2.24-5.22q2.23-2,7.49-2Z"></path>
  <path class="a" d="M246.94,77.31h-59.7a18.64,18.64,0,0,0,8.06,9.16Q201.08,90,211,89.94q8.09,0,21.51-3.47a37,37,0,0,1,7.67-1.42,6.55,6.55,0,0,1,4.9,2,7.21,7.21,0,0,1,2,5.19,6.34,6.34,0,0,1-2.13,4.82q-2.83,2.64-13.84,5a100.54,100.54,0,0,1-21.16,2.38q-17.46,0-27.93-9.87a32.05,32.05,0,0,1-10.47-24.28q0-15.33,11.32-24.95a39.14,39.14,0,0,1,26.09-9.62,41.56,41.56,0,0,1,16.29,3.12c4.95,2.09,8.63,4.33,11,6.75a42.37,42.37,0,0,1,8.45,13,32,32,0,0,1,2.27,12.49ZM230.83,62.76a22.81,22.81,0,0,0-8.73-9.34,28.12,28.12,0,0,0-25.63,0,23.15,23.15,0,0,0-8.8,9.34Z"></path>
  <path class="a" d="M309.48,10.08V87.6h17.46q5.25,0,7.49,2a7.27,7.27,0,0,1,0,10.5q-2.24,2-7.49,2H277.46q-5.25,0-7.49-2a6.79,6.79,0,0,1-2.23-5.29A6.68,6.68,0,0,1,270,89.63q2.23-2,7.49-2h17.47v-63H283.21c-3.45,0-5.94-.67-7.45-2a6.73,6.73,0,0,1-2.27-5.29,6.72,6.72,0,0,1,2.23-5.22q2.23-2,7.49-2Z"></path>
  <path class="b" d="M14.55,14.55V100h8.81q5.25,0,7.48,2a6.68,6.68,0,0,1,2.24,5.26,6.75,6.75,0,0,1-2.24,5.28q-2.23,2-7.48,2H0V0H23.28c3.51,0,6,.67,7.49,2A6.82,6.82,0,0,1,33,7.31a6.73,6.73,0,0,1-2.24,5.22c-1.49,1.35-4,2-7.49,2Z"></path>
  <path class="b" d="M384.43,100V14.55h-8.81c-3.5,0-6-.67-7.49-2a6.72,6.72,0,0,1-2.23-5.22A6.81,6.81,0,0,1,368.13,2c1.5-1.35,4-2,7.49-2H399V114.58H375.69q-5.25,0-7.48-2a7.27,7.27,0,0,1,0-10.5q2.24-2,7.48-2Z"></path>
</svg>
